# xmcd
#
# Track frame offsets:
#	150
#	13747
#	30983
#	49494
#	65065
#	82917
#	101210
#	115674
#	132551
#	152259
#	170296
#	189284
#	208502
#	222344
#	240077
#	256334
#	272646
#
# Disc length: 3931 seconds
#
# Revision: 1
# Processed by: cddbd v1.5.2PL0 Copyright (c) Steve Scherf et al.
# Submitted via: audiograbber 1.83.01
#
DISCID=e00f5911
DTITLE=ESP489 - ESP489-04
DYEAR=2006
DGENRE=Country
TTITLE0=Sugarland - Down In Mississippi (Up To No Good)
TTITLE1=Faith Hill - The Lucky One
TTITLE2=Leann Rimes - Something's Gotta Give
TTITLE3=Carrie Underwood - Before He Cheats
TTITLE4=Katrina Elam - Love Is
TTITLE5=Jo Dee Messina - It's Too Late To Worry
TTITLE6=Danielle Peck - Isn't That Everything
TTITLE7=Wreckers - My, Oh My
TTITLE8=Little Big Town - Good As Gone
TTITLE9=Lee Ann Womack - Twenty Years And Two Husbands Ago
TTITLE10=Martina McBride - Help Me Make It Through The Night
TTITLE11=Ashley Monroe w Ronnie Dunn - I Don't Want To
TTITLE12=Gretchen Wilson - California Girls
TTITLE13=Kellie Pickler - Red High Heels
TTITLE14=Julie Roberts - Men and Mascara
TTITLE15=Sugarland - Settlin'
TTITLE16=Trisha Yearwood w Garth Brooks - Love Will Always Win
EXTD=
EXTT0=
EXTT1=
EXTT2=
EXTT3=
EXTT4=
EXTT5=
EXTT6=
EXTT7=
EXTT8=
EXTT9=
EXTT10=
EXTT11=
EXTT12=
EXTT13=
EXTT14=
EXTT15=
EXTT16=
PLAYORDER=
